<svg width="22" height="25" viewBox="0 0 22 25" fill="none" xmlns="http://www.w3.org/2000/svg">
    <path d="M13.541 20.3047H14.666C14.8152 20.3047 14.9583 20.2454 15.0638 20.1399C15.1693 20.0344 15.2285 19.8914 15.2285 19.7422V9.61719C15.2285 9.468 15.1693 9.32493 15.0638 9.21944C14.9583 9.11395 14.8152 9.05469 14.666 9.05469H13.541C13.3918 9.05469 13.2488 9.11395 13.1433 9.21944C13.0378 9.32493 12.9785 9.468 12.9785 9.61719V19.7422C12.9785 19.8914 13.0378 20.0344 13.1433 20.1399C13.2488 20.2454 13.3918 20.3047 13.541 20.3047ZM21.2285 4.55469H17.3655L15.7718 1.89688C15.5718 1.5636 15.2889 1.28782 14.9506 1.09642C14.6123 0.90501 14.2302 0.804503 13.8415 0.804688H9.11555C8.72702 0.804665 8.34511 0.905249 8.007 1.09665C7.66889 1.28805 7.3861 1.56374 7.18617 1.89688L5.59148 4.55469H1.72852C1.5296 4.55469 1.33884 4.63371 1.19819 4.77436C1.05753 4.91501 0.978516 5.10578 0.978516 5.30469L0.978516 6.05469C0.978516 6.2536 1.05753 6.44437 1.19819 6.58502C1.33884 6.72567 1.5296 6.80469 1.72852 6.80469H2.47852V22.5547C2.47852 23.1514 2.71557 23.7237 3.13753 24.1457C3.55948 24.5676 4.13178 24.8047 4.72852 24.8047H18.2285C18.8253 24.8047 19.3975 24.5676 19.8195 24.1457C20.2415 23.7237 20.4785 23.1514 20.4785 22.5547V6.80469H21.2285C21.4274 6.80469 21.6182 6.72567 21.7588 6.58502C21.8995 6.44437 21.9785 6.2536 21.9785 6.05469V5.30469C21.9785 5.10578 21.8995 4.91501 21.7588 4.77436C21.6182 4.63371 21.4274 4.55469 21.2285 4.55469ZM9.03352 3.19109C9.05858 3.14937 9.09405 3.11487 9.13644 3.09096C9.17884 3.06705 9.22672 3.05455 9.27539 3.05469H13.6816C13.7302 3.05463 13.778 3.06717 13.8203 3.09107C13.8626 3.11498 13.898 3.14944 13.923 3.19109L14.7415 4.55469H8.21555L9.03352 3.19109ZM18.2285 22.5547H4.72852V6.80469H18.2285V22.5547ZM8.29102 20.3047H9.41602C9.5652 20.3047 9.70827 20.2454 9.81376 20.1399C9.91925 20.0344 9.97852 19.8914 9.97852 19.7422V9.61719C9.97852 9.468 9.91925 9.32493 9.81376 9.21944C9.70827 9.11395 9.5652 9.05469 9.41602 9.05469H8.29102C8.14183 9.05469 7.99876 9.11395 7.89327 9.21944C7.78778 9.32493 7.72852 9.468 7.72852 9.61719V19.7422C7.72852 19.8914 7.78778 20.0344 7.89327 20.1399C7.99876 20.2454 8.14183 20.3047 8.29102 20.3047Z" fill="#DD2222"/>
</svg>