<svg width="21" height="21" viewBox="0 0 21 21" fill="none" xmlns="http://www.w3.org/2000/svg">
    <path fill-rule="evenodd" clip-rule="evenodd" d="M18.5513 10.9702C18.5513 15.3885 14.9695 18.9702 10.5513 18.9702C6.13299 18.9702 2.55127 15.3885 2.55127 10.9702C2.55127 6.55194 6.13299 2.97021 10.5513 2.97021C14.9695 2.97021 18.5513 6.55194 18.5513 10.9702ZM20.5513 10.9702C20.5513 16.4931 16.0741 20.9702 10.5513 20.9702C5.02842 20.9702 0.55127 16.4931 0.55127 10.9702C0.55127 5.44737 5.02842 0.970215 10.5513 0.970215C16.0741 0.970215 20.5513 5.44737 20.5513 10.9702ZM10.5513 16.9702C13.865 16.9702 16.5513 14.2839 16.5513 10.9702C16.5513 7.65651 13.865 4.97021 10.5513 4.97021C7.23756 4.97021 4.55127 7.65651 4.55127 10.9702C4.55127 14.2839 7.23756 16.9702 10.5513 16.9702Z" fill="#BBC3C9"/>
</svg>