<svg width="21" height="21" viewBox="0 0 21 21" fill="none" xmlns="http://www.w3.org/2000/svg">
    <path fill-rule="evenodd" clip-rule="evenodd" d="M18.478 10.9702C18.478 15.3885 14.8963 18.9702 10.478 18.9702C6.05975 18.9702 2.47803 15.3885 2.47803 10.9702C2.47803 6.55194 6.05975 2.97021 10.478 2.97021C14.8963 2.97021 18.478 6.55194 18.478 10.9702ZM20.478 10.9702C20.478 16.4931 16.0009 20.9702 10.478 20.9702C4.95518 20.9702 0.478027 16.4931 0.478027 10.9702C0.478027 5.44737 4.95518 0.970215 10.478 0.970215C16.0009 0.970215 20.478 5.44737 20.478 10.9702ZM10.478 16.9702C13.7917 16.9702 16.478 14.2839 16.478 10.9702C16.478 7.65651 13.7917 4.97021 10.478 4.97021C7.16432 4.97021 4.47803 7.65651 4.47803 10.9702C4.47803 14.2839 7.16432 16.9702 10.478 16.9702Z" fill="#0084F8"/>
</svg>