<svg width="25" height="35" viewBox="0 0 25 35" fill="none" xmlns="http://www.w3.org/2000/svg">
    <path fill-rule="evenodd" clip-rule="evenodd" d="M17.3512 26.8931L16.2645 27.1843C16.1204 27.2229 15.9669 27.2027 15.8377 27.1281C15.7085 27.0535 15.6142 26.9306 15.5756 26.7865L12.9551 17.0065C12.9165 16.8624 12.9367 16.7089 13.0113 16.5797C13.0859 16.4505 13.2087 16.3562 13.3528 16.3176L14.4395 16.0264C14.5836 15.9878 14.7371 16.008 14.8663 16.0826C14.9955 16.1572 15.0898 16.2801 15.1284 16.4242L17.749 26.2042C17.7876 26.3483 17.7674 26.5018 17.6928 26.631C17.6182 26.7602 17.4953 26.8545 17.3512 26.8931ZM2.34375 17.9734L6.16133 32.2208C6.31578 32.7972 6.69287 33.2886 7.20966 33.587C7.72645 33.8854 8.3406 33.9662 8.91701 33.8118L21.957 30.3177C22.5334 30.1633 23.0249 29.7862 23.3232 29.2694C23.6216 28.7526 23.7024 28.1385 23.548 27.562L19.7304 13.3146L17.5571 13.897L21.3747 28.1444L8.33466 31.6384L4.51708 17.391L2.34375 17.9734ZM12.2801 28.2519L11.1934 28.5431C11.0493 28.5817 10.8958 28.5615 10.7666 28.4869C10.6374 28.4123 10.5431 28.2894 10.5045 28.1453L7.88397 18.3653C7.84536 18.2212 7.86557 18.0677 7.94016 17.9385C8.01476 17.8093 8.13762 17.715 8.28172 17.6764L9.36838 17.3852C9.51248 17.3466 9.66602 17.3668 9.79522 17.4414C9.92442 17.516 10.0187 17.6389 10.0573 17.783L12.6778 27.563C12.7165 27.7071 12.6962 27.8606 12.6217 27.9898C12.5471 28.119 12.4242 28.2133 12.2801 28.2519Z" fill="#DD2222"/>
    <path fill-rule="evenodd" clip-rule="evenodd" d="M20.9908 8.95665L17.253 7.98129L16.3819 5.00718C16.2726 4.63421 16.0684 4.29593 15.7894 4.02531C15.5104 3.75469 15.1661 3.56096 14.7899 3.463L10.2171 2.26974C9.8412 2.17162 9.44627 2.17251 9.07079 2.27234C8.69531 2.37217 8.35207 2.56752 8.07451 2.83939L5.86041 5.00844L2.12261 4.03308C1.93014 3.98285 1.7256 4.01114 1.554 4.11172C1.38239 4.21231 1.25776 4.37694 1.20754 4.56941L1.01817 5.29511C0.967948 5.48757 0.996239 5.69211 1.09682 5.86372C1.1974 6.03533 1.36203 6.15995 1.5545 6.21017L2.2802 6.39954L4.4573 6.96765L17.5199 10.3763L19.697 10.9444L20.4227 11.1338C20.6152 11.184 20.8197 11.1557 20.9913 11.0551C21.1629 10.9545 21.2875 10.7899 21.3378 10.5974L21.5271 9.87172C21.5773 9.67925 21.5491 9.47472 21.4485 9.30311C21.3479 9.1315 21.1833 9.00688 20.9908 8.95665ZM8.40489 5.64932L14.8289 7.32565L14.4446 5.65236L9.56868 4.38001L8.40489 5.64932Z" fill="#DD2222"/>
</svg>