<svg width="17" height="17" viewBox="0 0 17 17" fill="none" xmlns="http://www.w3.org/2000/svg">
    <path d="M14.103 12.2202C14.0907 12.2202 14.0795 12.2237 14.0672 12.2237L12.689 9.92732C12.8673 9.60494 12.978 9.23967 12.978 8.84521C12.978 8.45076 12.8676 8.08549 12.689 7.76311L14.0672 5.4667C14.0795 5.46705 14.0907 5.47021 14.103 5.47021C15.3458 5.47021 16.353 4.46299 16.353 3.22021C16.353 1.97744 15.3458 0.970215 14.103 0.970215C13.2723 0.970215 12.5547 1.42549 12.1652 2.09521H4.79084C4.40131 1.42549 3.68377 0.970215 2.85303 0.970215C1.61025 0.970215 0.603027 1.97744 0.603027 3.22021C0.603027 4.05096 1.0583 4.7685 1.72803 5.15803V12.5321C1.0583 12.9219 0.603027 13.6395 0.603027 14.4702C0.603027 15.713 1.61025 16.7202 2.85303 16.7202C3.68377 16.7202 4.40131 16.2649 4.79084 15.5952H12.1649C12.5547 16.2649 13.2719 16.7202 14.1027 16.7202C15.3454 16.7202 16.3527 15.713 16.3527 14.4702C16.353 13.2274 15.3458 12.2202 14.103 12.2202ZM3.97803 12.5324V5.15803C4.31494 4.96226 4.59507 4.68213 4.79084 4.34521H12.116L10.7639 6.59873C10.7516 6.59838 10.7403 6.59521 10.728 6.59521C9.48525 6.59521 8.47803 7.60244 8.47803 8.84521C8.47803 10.088 9.48525 11.0952 10.728 11.0952C10.7403 11.0952 10.7516 11.0917 10.7639 11.0917L12.116 13.3452H4.79084C4.59517 13.0082 4.31502 12.7281 3.97803 12.5324ZM10.1655 8.84521C10.1655 8.53514 10.4179 8.28271 10.728 8.28271C11.0381 8.28271 11.2905 8.53514 11.2905 8.84521C11.2905 9.15529 11.0381 9.40771 10.728 9.40771C10.4179 9.40771 10.1655 9.15529 10.1655 8.84521ZM14.6655 3.22021C14.6655 3.53029 14.4131 3.78271 14.103 3.78271C13.7929 3.78271 13.5405 3.53029 13.5405 3.22021C13.5405 2.91014 13.7929 2.65771 14.103 2.65771C14.4131 2.65771 14.6655 2.91014 14.6655 3.22021ZM2.85303 2.65771C3.16311 2.65771 3.41553 2.91014 3.41553 3.22021C3.41553 3.53029 3.16311 3.78271 2.85303 3.78271C2.54295 3.78271 2.29053 3.53029 2.29053 3.22021C2.29053 2.91014 2.54295 2.65771 2.85303 2.65771ZM2.29053 14.4702C2.29053 14.1601 2.54295 13.9077 2.85303 13.9077C3.16311 13.9077 3.41553 14.1601 3.41553 14.4702C3.41553 14.7803 3.16311 15.0327 2.85303 15.0327C2.54295 15.0327 2.29053 14.7803 2.29053 14.4702ZM14.103 15.0327C13.7929 15.0327 13.5405 14.7803 13.5405 14.4702C13.5405 14.1601 13.7929 13.9077 14.103 13.9077C14.4131 13.9077 14.6655 14.1601 14.6655 14.4702C14.6655 14.7803 14.4131 15.0327 14.103 15.0327Z" fill="#BBC3C9"/>
</svg>