<svg width="17" height="16" viewBox="0 0 17 16" fill="none" xmlns="http://www.w3.org/2000/svg">
    <path d="M14.1763 11.3452C14.164 11.3452 14.1527 11.3487 14.1404 11.3487L12.7623 9.05232C12.9405 8.72994 13.0513 8.36467 13.0513 7.97021C13.0513 7.57576 12.9409 7.21049 12.7623 6.88811L14.1404 4.5917C14.1527 4.59205 14.164 4.59521 14.1763 4.59521C15.419 4.59521 16.4263 3.58799 16.4263 2.34521C16.4263 1.10244 15.419 0.0952148 14.1763 0.0952148C13.3455 0.0952148 12.628 0.550488 12.2385 1.22021H4.86408C4.47455 0.550488 3.75701 0.0952148 2.92627 0.0952148C1.6835 0.0952148 0.67627 1.10244 0.67627 2.34521C0.67627 3.17596 1.13154 3.8935 1.80127 4.28303V11.6571C1.13154 12.0469 0.67627 12.7645 0.67627 13.5952C0.67627 14.838 1.6835 15.8452 2.92627 15.8452C3.75701 15.8452 4.47455 15.3899 4.86408 14.7202H12.2381C12.628 15.3899 13.3452 15.8452 14.1759 15.8452C15.4187 15.8452 16.4259 14.838 16.4259 13.5952C16.4263 12.3524 15.419 11.3452 14.1763 11.3452ZM4.05127 11.6574V4.28303C4.38819 4.08726 4.66832 3.80713 4.86408 3.47021H12.1892L10.8371 5.72373C10.8248 5.72338 10.8136 5.72021 10.8013 5.72021C9.5585 5.72021 8.55127 6.72744 8.55127 7.97021C8.55127 9.21299 9.5585 10.2202 10.8013 10.2202C10.8136 10.2202 10.8248 10.2167 10.8371 10.2167L12.1892 12.4702H4.86408C4.66842 12.1332 4.38826 11.8531 4.05127 11.6574ZM10.2388 7.97021C10.2388 7.66014 10.4912 7.40771 10.8013 7.40771C11.1113 7.40771 11.3638 7.66014 11.3638 7.97021C11.3638 8.28029 11.1113 8.53271 10.8013 8.53271C10.4912 8.53271 10.2388 8.28029 10.2388 7.97021ZM14.7388 2.34521C14.7388 2.65529 14.4863 2.90771 14.1763 2.90771C13.8662 2.90771 13.6138 2.65529 13.6138 2.34521C13.6138 2.03514 13.8662 1.78271 14.1763 1.78271C14.4863 1.78271 14.7388 2.03514 14.7388 2.34521ZM2.92627 1.78271C3.23635 1.78271 3.48877 2.03514 3.48877 2.34521C3.48877 2.65529 3.23635 2.90771 2.92627 2.90771C2.61619 2.90771 2.36377 2.65529 2.36377 2.34521C2.36377 2.03514 2.61619 1.78271 2.92627 1.78271ZM2.36377 13.5952C2.36377 13.2851 2.61619 13.0327 2.92627 13.0327C3.23635 13.0327 3.48877 13.2851 3.48877 13.5952C3.48877 13.9053 3.23635 14.1577 2.92627 14.1577C2.61619 14.1577 2.36377 13.9053 2.36377 13.5952ZM14.1763 14.1577C13.8662 14.1577 13.6138 13.9053 13.6138 13.5952C13.6138 13.2851 13.8662 13.0327 14.1763 13.0327C14.4863 13.0327 14.7388 13.2851 14.7388 13.5952C14.7388 13.9053 14.4863 14.1577 14.1763 14.1577Z" fill="#0084F8"/>
</svg>